<svg xmlns="http://www.w3.org/2000/svg" width="238" height="232" viewBox="0 0 238 232" fill="none">
    <path d="M187.92 34.8H48.72C42.3135 34.8 37.12 39.9935 37.12 46.4V185.6C37.12 192.007 42.3135 197.2 48.72 197.2H187.92C194.326 197.2 199.52 192.007 199.52 185.6V46.4C199.52 39.9935 194.326 34.8 187.92 34.8Z" fill="url(#paint0_linear_24_9948)"/>
    <g filter="url(#filter0_d_24_9948)">
        <path d="M169.36 46.4H12.76C9.55671 46.4 6.95996 48.9967 6.95996 52.2V81.2C6.95996 84.4033 9.55671 87 12.76 87H169.36C172.563 87 175.16 84.4033 175.16 81.2V52.2C175.16 48.9967 172.563 46.4 169.36 46.4Z" fill="white"/>
    </g>
    <path opacity="0.3" d="M87 55.68H56.84C54.918 55.68 53.36 57.238 53.36 59.16C53.36 61.082 54.918 62.64 56.84 62.64H87C88.9219 62.64 90.48 61.082 90.48 59.16C90.48 57.238 88.9219 55.68 87 55.68Z" fill="#5136F5"/>
    <path d="M107.88 70.76H56.84C54.918 70.76 53.36 72.3181 53.36 74.24C53.36 76.162 54.918 77.72 56.84 77.72H107.88C109.802 77.72 111.36 76.162 111.36 74.24C111.36 72.3181 109.802 70.76 107.88 70.76Z" fill="#DEE9FC"/>
    <path d="M38.2799 49.88H16.2399C13.0367 49.88 10.4399 52.4768 10.4399 55.68V77.72C10.4399 80.9233 13.0367 83.52 16.2399 83.52H38.2799C41.4832 83.52 44.0799 80.9233 44.0799 77.72V55.68C44.0799 52.4768 41.4832 49.88 38.2799 49.88Z" fill="#189FCA"/>
    <path d="M24.6174 70.5045H26.9374L26.9629 69.6113C26.9629 68.4374 27.703 68.1312 28.7493 67.7994C29.7989 67.5008 30.7227 66.8687 31.3811 65.9985C32.0395 65.1283 32.3967 64.0673 32.3987 62.9761C32.4216 62.3099 32.3061 61.6461 32.0592 61.0269C31.8124 60.4076 31.4397 59.8463 30.9648 59.3785C30.4898 58.9108 29.9229 58.5467 29.2999 58.3094C28.677 58.072 28.0115 57.9666 27.3457 57.9997C26.6421 57.9844 25.9426 58.1121 25.2898 58.3752C24.6371 58.6383 24.0445 59.0313 23.5482 59.5302C23.0518 60.0292 22.6619 60.6238 22.4023 61.2779C22.1426 61.9321 22.0185 62.6322 22.0375 63.3357H24.4364C24.4273 62.9473 24.4958 62.5609 24.638 62.1993C24.7801 61.8376 24.993 61.508 25.2642 61.2297C25.5353 60.9514 25.8593 60.73 26.2172 60.5785C26.575 60.4271 26.9595 60.3485 27.348 60.3476C27.6984 60.3273 28.0491 60.3826 28.3762 60.5099C28.7033 60.6372 28.9992 60.8334 29.2437 61.0852C29.4883 61.337 29.6757 61.6385 29.7934 61.9691C29.911 62.2998 29.9561 62.652 29.9255 63.0017C29.9101 63.5676 29.7133 64.1136 29.3641 64.5593C29.0149 65.005 28.5318 65.3267 27.986 65.4771L27.1439 65.8112C26.3193 66.0098 25.5995 66.5109 25.1269 67.2151C24.6542 67.9193 24.4633 68.7753 24.5919 69.6137L24.6174 70.5045ZM25.7658 76.0192C25.993 76.0272 26.2194 75.9897 26.4319 75.9087C26.6443 75.8277 26.8383 75.705 27.0025 75.5478C27.1666 75.3905 27.2976 75.202 27.3876 74.9932C27.4777 74.7845 27.5249 74.5598 27.5267 74.3325C27.5246 74.1054 27.4771 73.881 27.387 73.6725C27.2968 73.4641 27.1658 73.2758 27.0016 73.1188C26.8375 72.9618 26.6436 72.8393 26.4313 72.7585C26.2191 72.6776 25.9928 72.6401 25.7658 72.6482C25.5388 72.6401 25.3125 72.6776 25.1002 72.7585C24.888 72.8393 24.6941 72.9618 24.5299 73.1188C24.3658 73.2758 24.2348 73.4641 24.1446 73.6725C24.0544 73.881 24.0069 74.1054 24.0049 74.3325C24.0066 74.5598 24.0539 74.7845 24.1439 74.9932C24.234 75.202 24.3649 75.3905 24.5291 75.5478C24.6933 75.705 24.8873 75.8277 25.0997 75.9087C25.3121 75.9897 25.5386 76.0272 25.7658 76.0192Z" fill="white"/>
    <g filter="url(#filter1_d_24_9948)">
        <path d="M62.64 96.28H219.24C220.778 96.28 222.253 96.8911 223.341 97.9788C224.429 99.0665 225.04 100.542 225.04 102.08V131.08C225.04 132.618 224.429 134.094 223.341 135.181C222.253 136.269 220.778 136.88 219.24 136.88H62.64C61.1017 136.88 59.6265 136.269 58.5387 135.181C57.451 134.094 56.84 132.618 56.84 131.08V102.08C56.84 100.542 57.451 99.0665 58.5387 97.9788C59.6265 96.8911 61.1017 96.28 62.64 96.28V96.28Z" fill="white"/>
    </g>
    <path opacity="0.3" d="M136.88 105.56H106.72C104.798 105.56 103.24 107.118 103.24 109.04C103.24 110.962 104.798 112.52 106.72 112.52H136.88C138.802 112.52 140.36 110.962 140.36 109.04C140.36 107.118 138.802 105.56 136.88 105.56Z" fill="#5136F5"/>
    <path opacity="0.15" d="M157.76 120.64H106.72C104.798 120.64 103.24 122.198 103.24 124.12C103.24 126.042 104.798 127.6 106.72 127.6H157.76C159.682 127.6 161.24 126.042 161.24 124.12C161.24 122.198 159.682 120.64 157.76 120.64Z" fill="#5136F5"/>
    <path d="M88.1599 99.76H66.1199C62.9167 99.76 60.3199 102.357 60.3199 105.56V127.6C60.3199 130.803 62.9167 133.4 66.1199 133.4H88.1599C91.3632 133.4 93.9599 130.803 93.9599 127.6V105.56C93.9599 102.357 91.3632 99.76 88.1599 99.76Z" fill="#189FCA"/>
    <path d="M74.4974 120.385H76.8174L76.8429 119.491C76.8429 118.317 77.583 118.011 78.6293 117.679C79.6789 117.381 80.6027 116.749 81.2611 115.878C81.9195 115.008 82.2767 113.947 82.2787 112.856C82.3016 112.19 82.1861 111.526 81.9392 110.907C81.6924 110.288 81.3197 109.726 80.8448 109.259C80.3698 108.791 79.8029 108.427 79.1799 108.189C78.557 107.952 77.8915 107.847 77.2257 107.88C76.5221 107.864 75.8226 107.992 75.1699 108.255C74.5171 108.518 73.9245 108.911 73.4282 109.41C72.9318 109.909 72.542 110.504 72.2823 111.158C72.0226 111.812 71.8985 112.512 71.9175 113.216H74.3164C74.3073 112.827 74.3758 112.441 74.518 112.079C74.6601 111.718 74.873 111.388 75.1442 111.11C75.4153 110.831 75.7393 110.61 76.0972 110.459C76.455 110.307 76.8395 110.229 77.228 110.228C77.5784 110.207 77.9291 110.263 78.2562 110.39C78.5833 110.517 78.8792 110.713 79.1237 110.965C79.3683 111.217 79.5557 111.518 79.6734 111.849C79.791 112.18 79.8361 112.532 79.8055 112.882C79.7901 113.448 79.5933 113.994 79.2441 114.439C78.8949 114.885 78.4118 115.207 77.866 115.357L77.0239 115.691C76.1994 115.89 75.4795 116.391 75.0069 117.095C74.5343 117.799 74.3433 118.655 74.4719 119.494L74.4974 120.385ZM75.6458 125.899C75.873 125.907 76.0995 125.87 76.3119 125.789C76.5243 125.708 76.7183 125.585 76.8825 125.428C77.0466 125.271 77.1776 125.082 77.2676 124.873C77.3577 124.664 77.4049 124.44 77.4067 124.213C77.4046 123.985 77.3571 123.761 77.267 123.553C77.1768 123.344 77.0458 123.156 76.8816 122.999C76.7175 122.842 76.5236 122.719 76.3113 122.638C76.0991 122.558 75.8728 122.52 75.6458 122.528C75.4188 122.52 75.1925 122.558 74.9802 122.638C74.768 122.719 74.5741 122.842 74.4099 122.999C74.2458 123.156 74.1148 123.344 74.0246 123.553C73.9344 123.761 73.8869 123.985 73.8849 124.213C73.8866 124.44 73.9339 124.664 74.0239 124.873C74.114 125.082 74.2449 125.271 74.4091 125.428C74.5733 125.585 74.7673 125.708 74.9797 125.789C75.1921 125.87 75.4186 125.907 75.6458 125.899Z" fill="white"/>
    <g filter="url(#filter2_d_24_9948)">
        <path d="M12.76 146.16H169.36C170.898 146.16 172.373 146.771 173.461 147.859C174.549 148.946 175.16 150.422 175.16 151.96V180.96C175.16 182.498 174.549 183.974 173.461 185.061C172.373 186.149 170.898 186.76 169.36 186.76H12.76C11.2217 186.76 9.74645 186.149 8.65874 185.061C7.57103 183.974 6.95996 182.498 6.95996 180.96V151.96C6.95996 150.422 7.57103 148.946 8.65874 147.859C9.74645 146.771 11.2217 146.16 12.76 146.16V146.16Z" fill="white"/>
    </g>
    <path opacity="0.3" d="M87 155.44H56.84C54.918 155.44 53.36 156.998 53.36 158.92C53.36 160.842 54.918 162.4 56.84 162.4H87C88.9219 162.4 90.48 160.842 90.48 158.92C90.48 156.998 88.9219 155.44 87 155.44Z" fill="#5136F5"/>
    <path opacity="0.15" d="M107.88 170.52H56.84C54.918 170.52 53.36 172.078 53.36 174C53.36 175.922 54.918 177.48 56.84 177.48H107.88C109.802 177.48 111.36 175.922 111.36 174C111.36 172.078 109.802 170.52 107.88 170.52Z" fill="#5136F5"/>
    <path d="M38.2799 149.64H16.2399C13.0367 149.64 10.4399 152.237 10.4399 155.44V177.48C10.4399 180.683 13.0367 183.28 16.2399 183.28H38.2799C41.4832 183.28 44.0799 180.683 44.0799 177.48V155.44C44.0799 152.237 41.4832 149.64 38.2799 149.64Z" fill="#189FCA"/>
    <path d="M24.6174 170.265H26.9374L26.9629 169.371C26.9629 168.197 27.703 167.891 28.7493 167.559C29.7989 167.261 30.7227 166.629 31.3811 165.758C32.0395 164.888 32.3967 163.827 32.3987 162.736C32.4216 162.07 32.3061 161.406 32.0592 160.787C31.8124 160.168 31.4397 159.606 30.9648 159.139C30.4898 158.671 29.9229 158.307 29.2999 158.069C28.677 157.832 28.0115 157.727 27.3457 157.76C26.6421 157.744 25.9426 157.872 25.2898 158.135C24.6371 158.398 24.0445 158.791 23.5482 159.29C23.0518 159.789 22.6619 160.384 22.4023 161.038C22.1426 161.692 22.0185 162.392 22.0375 163.096H24.4364C24.4273 162.707 24.4958 162.321 24.638 161.959C24.7801 161.598 24.993 161.268 25.2642 160.99C25.5353 160.711 25.8593 160.49 26.2172 160.339C26.575 160.187 26.9595 160.109 27.348 160.108C27.6984 160.087 28.0491 160.143 28.3762 160.27C28.7033 160.397 28.9992 160.593 29.2437 160.845C29.4883 161.097 29.6757 161.398 29.7934 161.729C29.911 162.06 29.9561 162.412 29.9255 162.762C29.9101 163.328 29.7133 163.874 29.3641 164.319C29.0149 164.765 28.5318 165.087 27.986 165.237L27.1439 165.571C26.3193 165.77 25.5995 166.271 25.1269 166.975C24.6542 167.679 24.4633 168.535 24.5919 169.374L24.6174 170.265ZM25.7658 175.779C25.993 175.787 26.2194 175.75 26.4319 175.669C26.6443 175.588 26.8383 175.465 27.0025 175.308C27.1666 175.151 27.2976 174.962 27.3876 174.753C27.4777 174.545 27.5249 174.32 27.5267 174.093C27.5246 173.865 27.4771 173.641 27.387 173.433C27.2968 173.224 27.1658 173.036 27.0016 172.879C26.8375 172.722 26.6436 172.599 26.4313 172.518C26.2191 172.438 25.9928 172.4 25.7658 172.408C25.5388 172.4 25.3125 172.438 25.1002 172.518C24.888 172.599 24.6941 172.722 24.5299 172.879C24.3658 173.036 24.2348 173.224 24.1446 173.433C24.0544 173.641 24.0069 173.865 24.0049 174.093C24.0066 174.32 24.0539 174.545 24.1439 174.753C24.234 174.962 24.3649 175.151 24.5291 175.308C24.6933 175.465 24.8873 175.588 25.0997 175.669C25.3121 175.75 25.5386 175.787 25.7658 175.779Z" fill="white"/>
    <path d="M223.128 28.4734V34.3163L199.52 34.3256V29.7494L212.991 13.9734H199.859V8.13044L222.679 8.12V12.6962L209.211 28.4792L223.128 28.4734Z" fill="#9AD5E8"/>
    <path d="M223.128 28.4734V34.3163L199.52 34.3256V29.7494L212.991 13.9734H199.859V8.13044L222.679 8.12V12.6962L209.211 28.4792L223.128 28.4734Z" stroke="url(#paint1_linear_24_9948)"/>
    <path d="M237.121 56.7226V59.1561L227.288 59.16V57.254L232.898 50.6834H227.429V48.2499L236.934 48.2456V50.1515L231.324 56.725L237.121 56.7226Z" fill="#9AD5E8"/>
    <path d="M237.121 56.7226V59.1561L227.288 59.16V57.254L232.898 50.6834H227.429V48.2499L236.934 48.2456V50.1515L231.324 56.725L237.121 56.7226Z" stroke="url(#paint2_linear_24_9948)"/>
    <path d="M228.52 68.3047V69.5979L223.88 69.6V68.5872L226.528 65.0955H223.947V63.8023L228.432 63.8V64.8128L225.785 68.306L228.52 68.3047Z" fill="#9AD5E8"/>
    <path d="M228.52 68.3047V69.5979L223.88 69.6V68.5872L226.528 65.0955H223.947V63.8023L228.432 63.8V64.8128L225.785 68.306L228.52 68.3047Z" stroke="url(#paint3_linear_24_9948)"/>
    <defs>
        <filter id="filter0_d_24_9948" x="0.959961" y="43.4" width="180.2" height="52.6" filterUnits="userSpaceOnUse" color-interpolation-filters="sRGB">
            <feFlood flood-opacity="0" result="BackgroundImageFix"/>
            <feColorMatrix in="SourceAlpha" type="matrix" values="0 0 0 0 0 0 0 0 0 0 0 0 0 0 0 0 0 0 127 0" result="hardAlpha"/>
            <feOffset dy="3"/>
            <feGaussianBlur stdDeviation="3"/>
            <feColorMatrix type="matrix" values="0 0 0 0 0 0 0 0 0 0 0 0 0 0 0 0 0 0 0.161 0"/>
            <feBlend mode="normal" in2="BackgroundImageFix" result="effect1_dropShadow_24_9948"/>
            <feBlend mode="normal" in="SourceGraphic" in2="effect1_dropShadow_24_9948" result="shape"/>
        </filter>
        <filter id="filter1_d_24_9948" x="50.84" y="93.28" width="180.2" height="52.6" filterUnits="userSpaceOnUse" color-interpolation-filters="sRGB">
            <feFlood flood-opacity="0" result="BackgroundImageFix"/>
            <feColorMatrix in="SourceAlpha" type="matrix" values="0 0 0 0 0 0 0 0 0 0 0 0 0 0 0 0 0 0 127 0" result="hardAlpha"/>
            <feOffset dy="3"/>
            <feGaussianBlur stdDeviation="3"/>
            <feColorMatrix type="matrix" values="0 0 0 0 0 0 0 0 0 0 0 0 0 0 0 0 0 0 0.161 0"/>
            <feBlend mode="normal" in2="BackgroundImageFix" result="effect1_dropShadow_24_9948"/>
            <feBlend mode="normal" in="SourceGraphic" in2="effect1_dropShadow_24_9948" result="shape"/>
        </filter>
        <filter id="filter2_d_24_9948" x="0.959961" y="143.16" width="180.2" height="52.6" filterUnits="userSpaceOnUse" color-interpolation-filters="sRGB">
            <feFlood flood-opacity="0" result="BackgroundImageFix"/>
            <feColorMatrix in="SourceAlpha" type="matrix" values="0 0 0 0 0 0 0 0 0 0 0 0 0 0 0 0 0 0 127 0" result="hardAlpha"/>
            <feOffset dy="3"/>
            <feGaussianBlur stdDeviation="3"/>
            <feColorMatrix type="matrix" values="0 0 0 0 0 0 0 0 0 0 0 0 0 0 0 0 0 0 0.161 0"/>
            <feBlend mode="normal" in2="BackgroundImageFix" result="effect1_dropShadow_24_9948"/>
            <feBlend mode="normal" in="SourceGraphic" in2="effect1_dropShadow_24_9948" result="shape"/>
        </filter>
        <linearGradient id="paint0_linear_24_9948" x1="11.3155" y1="107.88" x2="160.052" y2="186.336" gradientUnits="userSpaceOnUse">
            <stop stop-color="#9AD5E8"/>
            <stop offset="0.25" stop-color="#8DDEF8"/>
            <stop offset="0.486792" stop-color="#189FCA"/>
            <stop offset="0.708333" stop-color="#55C4E8"/>
            <stop offset="1" stop-color="#9FE8FF"/>
        </linearGradient>
        <linearGradient id="paint1_linear_24_9948" x1="195.769" y1="19.9125" x2="218.315" y2="30.6268" gradientUnits="userSpaceOnUse">
            <stop stop-color="#452BFF"/>
            <stop offset="0.486792" stop-color="#DA61B1"/>
            <stop offset="1" stop-color="#FF7F2C"/>
        </linearGradient>
        <linearGradient id="paint2_linear_24_9948" x1="225.725" y1="53.1571" x2="235.116" y2="57.6195" gradientUnits="userSpaceOnUse">
            <stop stop-color="#452BFF"/>
            <stop offset="0.486792" stop-color="#DA61B1"/>
            <stop offset="1" stop-color="#FF7F2C"/>
        </linearGradient>
        <linearGradient id="paint3_linear_24_9948" x1="223.143" y1="66.41" x2="227.754" y2="68.3558" gradientUnits="userSpaceOnUse">
            <stop stop-color="#452BFF"/>
            <stop offset="0.486792" stop-color="#DA61B1"/>
            <stop offset="1" stop-color="#FF7F2C"/>
        </linearGradient>
    </defs>
</svg>