<svg width="26" height="33" viewBox="0 0 26 33" fill="none" xmlns="http://www.w3.org/2000/svg">
    <g clip-path="url(#clip0_14_8351)">
        <path d="M25.1855 11.2588C23.0554 12.6176 21.7398 14.9471 21.7398 17.5353C21.7398 20.4471 23.4313 23.1 26 24.2C25.4988 25.8824 24.747 27.4353 23.8072 28.8588C22.4289 30.8647 20.988 32.9353 18.8578 32.9353C16.7277 32.9353 16.1012 31.6412 13.5952 31.6412C11.1518 31.6412 10.2747 33 8.26988 33C6.26506 33 4.88675 31.1235 3.32048 28.7941C1.25301 25.5588 0.0626506 21.8059 0 17.8588C0 11.4529 4.00964 8.02353 8.01928 8.02353C10.1494 8.02353 11.9036 9.44706 13.2193 9.44706C14.4723 9.44706 16.4771 7.95882 18.8578 7.95882C21.3639 7.89412 23.7446 9.12353 25.1855 11.2588ZM17.7301 5.24118C18.7952 3.94706 19.359 2.32941 19.4217 0.647059C19.4217 0.452941 19.4217 0.194118 19.359 0C17.5422 0.194118 15.8506 1.1 14.6602 2.52353C13.5952 3.75294 12.9687 5.30588 12.906 6.98824C12.906 7.18235 12.906 7.37647 12.9687 7.57059C13.094 7.57059 13.2819 7.63529 13.4072 7.63529C15.0988 7.50588 16.6651 6.6 17.7301 5.24118Z" fill="black"/>
    </g>
    <defs>
        <clipPath id="clip0_14_8351">
            <rect width="26" height="33" fill="white"/>
        </clipPath>
    </defs>
</svg>