<svg xmlns="http://www.w3.org/2000/svg" width="16" height="16" viewBox="0 0 16 16" fill="none">
    <g clip-path="url(#clip0_14_7899)">
        <path d="M3.63666 10L0.666656 12.3333V2C0.666656 1.82319 0.736894 1.65362 0.861919 1.5286C0.986943 1.40357 1.15651 1.33334 1.33332 1.33334H11.3333C11.5101 1.33334 11.6797 1.40357 11.8047 1.5286C11.9298 1.65362 12 1.82319 12 2V10H3.63666ZM3.17532 8.66667H10.6667V2.66667H1.99999V9.59L3.17532 8.66667ZM5.33332 11.3333H12.158L13.3333 12.2567V5.33334H14C14.1768 5.33334 14.3464 5.40357 14.4714 5.5286C14.5964 5.65362 14.6667 5.82319 14.6667 6V15L11.6967 12.6667H5.99999C5.82318 12.6667 5.65361 12.5964 5.52859 12.4714C5.40356 12.3464 5.33332 12.1768 5.33332 12V11.3333Z" fill="#CECECE"/>
    </g>
    <defs>
        <clipPath id="clip0_14_7899">
            <rect width="16" height="16" fill="white"/>
        </clipPath>
    </defs>
</svg>