<svg width="16" height="16" viewBox="0 0 16 16" fill="none" xmlns="http://www.w3.org/2000/svg">
<g id="remix-icons/fill/document/folder-5-fill" clip-path="url(#clip0_14_8230)">
<g id="Group">
<path id="Vector" d="M8.94275 3.33333H13.3334C13.5102 3.33333 13.6798 3.40357 13.8048 3.5286C13.9298 3.65362 14.0001 3.82319 14.0001 4V4.66667H2.00008V2.66667C2.00008 2.48986 2.07032 2.32029 2.19534 2.19526C2.32037 2.07024 2.48994 2 2.66675 2H7.60941L8.94275 3.33333ZM2.05808 6H13.9421C14.0343 5.99996 14.1256 6.01906 14.21 6.05609C14.2945 6.09312 14.3704 6.14728 14.4329 6.21514C14.4953 6.283 14.543 6.36308 14.573 6.45033C14.6029 6.53757 14.6144 6.63008 14.6067 6.722L14.0507 13.3887C14.0369 13.5553 13.9609 13.7106 13.8379 13.8238C13.7149 13.937 13.5539 13.9999 13.3867 14H2.61341C2.44624 13.9999 2.28521 13.937 2.16223 13.8238C2.03924 13.7106 1.96329 13.5553 1.94941 13.3887L1.39341 6.722C1.38576 6.63008 1.39726 6.53757 1.42719 6.45033C1.45712 6.36308 1.50483 6.283 1.5673 6.21514C1.62978 6.14728 1.70565 6.09312 1.79013 6.05609C1.8746 6.01906 1.96584 5.99996 2.05808 6V6Z" fill="#4882F5"/>
</g>
</g>
<defs>
<clipPath id="clip0_14_8230">
<rect width="16" height="16" fill="white"/>
</clipPath>
</defs>
</svg>
