<svg xmlns="http://www.w3.org/2000/svg" width="201" height="200" viewBox="0 0 201 200" fill="none">
    <path d="M160.5 24H40.5C34.9772 24 30.5 28.4772 30.5 34V154C30.5 159.523 34.9772 164 40.5 164H160.5C166.023 164 170.5 159.523 170.5 154V34C170.5 28.4772 166.023 24 160.5 24Z" fill="url(#paint0_linear_29_10242)"/>
    <g filter="url(#filter0_d_29_10242)">
        <path d="M143.5 46H57.5C54.7386 46 52.5 48.5306 52.5 51.6522V170.348C52.5 173.469 54.7386 176 57.5 176H143.5C146.261 176 148.5 173.469 148.5 170.348V51.6522C148.5 48.5306 146.261 46 143.5 46Z" fill="white"/>
        <path opacity="0.3" d="M100.5 109H74.5C72.8431 109 71.5 110.343 71.5 112C71.5 113.657 72.8431 115 74.5 115H100.5C102.157 115 103.5 113.657 103.5 112C103.5 110.343 102.157 109 100.5 109Z" fill="#5136F5"/>
        <path opacity="0.15" d="M118.5 122H74.5C72.8431 122 71.5 123.343 71.5 125C71.5 126.657 72.8431 128 74.5 128H118.5C120.157 128 121.5 126.657 121.5 125C121.5 123.343 120.157 122 118.5 122Z" fill="#5136F5"/>
        <path opacity="0.3" d="M100.5 136H74.5C72.8431 136 71.5 137.343 71.5 139C71.5 140.657 72.8431 142 74.5 142H100.5C102.157 142 103.5 140.657 103.5 139C103.5 137.343 102.157 136 100.5 136Z" fill="#5136F5"/>
        <path opacity="0.15" d="M118.5 149H74.5C72.8431 149 71.5 150.343 71.5 152C71.5 153.657 72.8431 155 74.5 155H118.5C120.157 155 121.5 153.657 121.5 152C121.5 150.343 120.157 149 118.5 149Z" fill="#5136F5"/>
    </g>
    <path d="M110.5 59H91.5C88.7386 59 86.5 61.2386 86.5 64V83C86.5 85.7614 88.7386 88 91.5 88H110.5C113.261 88 115.5 85.7614 115.5 83V64C115.5 61.2386 113.261 59 110.5 59Z" fill="#189FCA"/>
    <path d="M98.722 76.7798H100.722L100.744 76.0098C100.744 74.9978 101.382 74.7338 102.284 74.4478C103.189 74.1904 103.985 73.6454 104.553 72.8952C105.12 72.1451 105.428 71.2305 105.43 70.2898C105.45 69.7154 105.35 69.1432 105.137 68.6094C104.925 68.0755 104.603 67.5916 104.194 67.1884C103.784 66.7851 103.296 66.4713 102.759 66.2667C102.222 66.0621 101.648 65.9712 101.074 65.9998C100.467 65.9865 99.8644 66.0967 99.3017 66.3235C98.7389 66.5503 98.2281 66.889 97.8002 67.3192C97.3723 67.7493 97.0363 68.2619 96.8124 68.8258C96.5886 69.3897 96.4816 69.9933 96.498 70.5998H98.566C98.5581 70.2649 98.6172 69.9318 98.7397 69.62C98.8623 69.3083 99.0458 69.0241 99.2796 68.7842C99.5133 68.5443 99.7926 68.3535 100.101 68.2229C100.41 68.0923 100.741 68.0246 101.076 68.0238C101.378 68.0063 101.68 68.054 101.962 68.1637C102.244 68.2734 102.499 68.4426 102.71 68.6596C102.921 68.8767 103.083 69.1366 103.184 69.4217C103.285 69.7068 103.324 70.0103 103.298 70.3118C103.285 70.7997 103.115 71.2704 102.814 71.6546C102.513 72.0388 102.097 72.3161 101.626 72.4458L100.9 72.7338C100.189 72.905 99.5686 73.337 99.1612 73.9441C98.7538 74.5511 98.5891 75.2891 98.7 76.0118L98.722 76.7798ZM99.712 81.5338C99.9078 81.5407 100.103 81.5083 100.286 81.4385C100.469 81.3687 100.637 81.2629 100.778 81.1274C100.92 80.9918 101.033 80.8293 101.11 80.6493C101.188 80.4694 101.228 80.2757 101.23 80.0798C101.228 79.884 101.187 79.6905 101.11 79.5108C101.032 79.3311 100.919 79.1688 100.777 79.0334C100.636 78.8981 100.469 78.7925 100.286 78.7228C100.103 78.6531 99.9076 78.6208 99.712 78.6278C99.5163 78.6208 99.3212 78.6531 99.1382 78.7228C98.9552 78.7925 98.7881 78.8981 98.6466 79.0334C98.5051 79.1688 98.3921 79.3311 98.3144 79.5108C98.2367 79.6905 98.1957 79.884 98.194 80.0798C98.1955 80.2757 98.2362 80.4694 98.3138 80.6493C98.3914 80.8293 98.5044 80.9918 98.6459 81.1274C98.7874 81.2629 98.9547 81.3687 99.1378 81.4385C99.3209 81.5083 99.5161 81.5407 99.712 81.5338Z" fill="white"/>
    <defs>
        <filter id="filter0_d_29_10242" x="46.5" y="46" width="108" height="143" filterUnits="userSpaceOnUse" color-interpolation-filters="sRGB">
            <feFlood flood-opacity="0" result="BackgroundImageFix"/>
            <feColorMatrix in="SourceAlpha" type="matrix" values="0 0 0 0 0 0 0 0 0 0 0 0 0 0 0 0 0 0 127 0" result="hardAlpha"/>
            <feOffset dy="7"/>
            <feGaussianBlur stdDeviation="3"/>
            <feColorMatrix type="matrix" values="0 0 0 0 0.788235 0 0 0 0 0.803922 0 0 0 0 0.85098 0 0 0 0.349 0"/>
            <feBlend mode="normal" in2="BackgroundImageFix" result="effect1_dropShadow_29_10242"/>
            <feBlend mode="normal" in="SourceGraphic" in2="effect1_dropShadow_29_10242" result="shape"/>
        </filter>
        <linearGradient id="paint0_linear_29_10242" x1="8.25475" y1="87" x2="136.476" y2="154.635" gradientUnits="userSpaceOnUse">
            <stop stop-color="#9AD5E8"/>
            <stop offset="0.25" stop-color="#8DDEF8"/>
            <stop offset="0.486792" stop-color="#189FCA"/>
            <stop offset="0.708333" stop-color="#55C4E8"/>
            <stop offset="1" stop-color="#9FE8FF"/>
        </linearGradient>
    </defs>
</svg>