<svg xmlns="http://www.w3.org/2000/svg" width="16" height="16" viewBox="0 0 16 16" fill="none">
  <g clip-path="url(#clip0_14_7893)">
    <path d="M8.94267 3.33333H13.3333C13.5101 3.33333 13.6797 3.40357 13.8047 3.5286C13.9298 3.65362 14 3.82319 14 4V4.66667H2V2.66667C2 2.48986 2.07024 2.32029 2.19526 2.19526C2.32029 2.07024 2.48986 2 2.66667 2H7.60933L8.94267 3.33333ZM2.058 6H13.942C14.0342 5.99996 14.1255 6.01906 14.21 6.05609C14.2944 6.09312 14.3703 6.14728 14.4328 6.21514C14.4952 6.283 14.543 6.36308 14.5729 6.45033C14.6028 6.53757 14.6143 6.63008 14.6067 6.722L14.0507 13.3887C14.0368 13.5553 13.9608 13.7106 13.8379 13.8238C13.7149 13.937 13.5538 13.9999 13.3867 14H2.61333C2.44616 13.9999 2.28513 13.937 2.16215 13.8238C2.03916 13.7106 1.96321 13.5553 1.94933 13.3887L1.39333 6.722C1.38568 6.63008 1.39718 6.53757 1.42711 6.45033C1.45704 6.36308 1.50475 6.283 1.56722 6.21514C1.62969 6.14728 1.70557 6.09312 1.79004 6.05609C1.87452 6.01906 1.96576 5.99996 2.058 6Z" fill="#4882F5"/>
  </g>
  <defs>
    <clipPath id="clip0_14_7893">
      <rect width="16" height="16" fill="white"/>
    </clipPath>
  </defs>
</svg>