<svg xmlns="http://www.w3.org/2000/svg" width="16" height="16" viewBox="0 0 16 16" fill="none">
    <g clip-path="url(#clip0_14_7897)">
        <path d="M8.00001 14.6667C7.21208 14.6667 6.43186 14.5115 5.70391 14.2099C4.97595 13.9084 4.31452 13.4665 3.75737 12.9093C3.20021 12.3522 2.75826 11.6907 2.45673 10.9628C2.1552 10.2348 2.00001 9.4546 2.00001 8.66667C2.00001 7.87874 2.1552 7.09852 2.45673 6.37057C2.75826 5.64262 3.20021 4.98118 3.75737 4.42403C4.31452 3.86688 4.97595 3.42492 5.70391 3.12339C6.43186 2.82187 7.21208 2.66667 8.00001 2.66667C9.59131 2.66667 11.1174 3.29881 12.2426 4.42403C13.3679 5.54925 14 7.07537 14 8.66667C14 10.258 13.3679 11.7841 12.2426 12.9093C11.1174 14.0345 9.59131 14.6667 8.00001 14.6667ZM8.00001 13.3333C8.61284 13.3333 9.21968 13.2126 9.78586 12.9781C10.352 12.7436 10.8665 12.3998 11.2998 11.9665C11.7332 11.5332 12.0769 11.0187 12.3114 10.4525C12.546 9.88634 12.6667 9.27951 12.6667 8.66667C12.6667 8.05384 12.546 7.447 12.3114 6.88081C12.0769 6.31463 11.7332 5.80018 11.2998 5.36684C10.8665 4.9335 10.352 4.58975 9.78586 4.35523C9.21968 4.12071 8.61284 4 8.00001 4C6.76233 4 5.57534 4.49167 4.70017 5.36684C3.825 6.24201 3.33334 7.42899 3.33334 8.66667C3.33334 9.90435 3.825 11.0913 4.70017 11.9665C5.57534 12.8417 6.76233 13.3333 8.00001 13.3333ZM8.66667 8.66667H10.6667V10H7.33334V5.33334H8.66667V8.66667ZM1.16467 4.188L3.52134 1.83134L4.46467 2.774L2.10667 5.13134L1.16467 4.188ZM12.478 1.83134L14.8353 4.188L13.8927 5.13134L11.5353 2.774L12.4787 1.83134H12.478Z" fill="#CECECE"/>
    </g>
    <defs>
        <clipPath id="clip0_14_7897">
            <rect width="16" height="16" fill="white"/>
        </clipPath>
    </defs>
</svg>