<svg width="98" height="19" viewBox="0 0 98 19" fill="none" xmlns="http://www.w3.org/2000/svg">
<g id="Stuckix">
<path d="M15.2719 13.5991C15.2719 16.4377 13.2779 18.3848 8.18725 18.3848C2.22862 18.3848 0 15.9451 0 11.7693H3.75347C3.75347 14.3029 5.02026 15.1005 8.30455 15.1005C10.7208 15.1005 11.5185 14.5375 11.5185 13.6461C11.5185 12.4496 9.50096 11.9101 7.08467 11.089C3.58925 9.91605 0.750693 8.97768 0.750693 5.74032C0.750693 2.92522 2.97931 1.37691 7.24888 1.37691C12.3161 1.37691 14.5916 3.95742 14.5916 7.24171H10.8381C10.8381 5.22422 9.28983 4.6612 7.24888 4.6612C5.55982 4.6612 4.50416 5.03654 4.50416 5.88107C4.50416 6.63177 4.90297 6.91328 7.55385 7.80473C10.6035 8.83693 15.2719 10.1506 15.2719 13.5991Z" fill="black"/>
<path d="M22.5483 9.58762V15.1005L26.9117 14.8659V18.1502L20.7889 18.3848C19.4986 18.4317 18.7948 17.681 18.7948 16.3908V9.58762H15.9797V6.30334H18.7948V4.07472L22.5483 2.90176V6.30334H26.4425V9.58762H22.5483Z" fill="black"/>
<path d="M34.7493 15.1005C36.7902 15.1005 38.1274 14.0214 38.1274 10.6902V6.30334H41.8808V18.1502H38.1274V16.7192L38.8312 14.6079H37.8928C37.4236 16.7192 35.9457 18.3848 33.4121 18.3848C30.3859 18.3848 28.556 16.3673 28.556 12.7077V6.30334H32.3095V12.1212C32.3095 14.2795 32.9429 15.1005 34.7493 15.1005Z" fill="black"/>
<path d="M43.2812 12.215C43.2812 8.27391 45.9791 6.06875 49.756 6.06875C52.9933 6.06875 55.9492 7.82818 56.1134 11.2063H52.3599C52.2192 10.1506 51.2574 9.35303 49.756 9.35303C47.9731 9.35303 47.0347 10.4087 47.0347 12.215C47.0347 14.0449 47.9731 15.1005 49.756 15.1005C51.2574 15.1005 52.2192 14.3029 52.3599 13.2473H56.1134C55.9492 16.6254 52.9933 18.3848 49.756 18.3848C45.9791 18.3848 43.2812 16.1796 43.2812 12.215Z" fill="black"/>
<path d="M71.1018 18.1502H66.8322L63.8764 13.5757L61.2724 14.7956V18.1502H57.5189V0.90773H61.2724V10.9248L66.6915 8.43812L66.6446 6.30334H70.398V8.88385C70.398 10.0099 69.9523 10.7371 68.9201 11.2298L67.0903 12.0743L71.1018 18.1502Z" fill="black"/>
<path d="M76.8885 5.13038C75.5044 5.13038 74.6834 4.47352 74.6834 3.25365C74.6834 2.05723 75.5044 1.37691 76.8885 1.37691C78.2726 1.37691 79.1406 2.05723 79.1406 3.25365C79.1406 4.47352 78.2726 5.13038 76.8885 5.13038ZM82.3545 18.1502H72.0325V14.8659H75.3871V9.44687L72.5017 9.58762V6.30334L76.9589 6.06875C78.2726 5.99837 78.9998 6.7256 78.9998 8.03932V14.8659H82.3545V18.1502Z" fill="black"/>
<path d="M87.5265 18.1502H83.0693L87.5734 12.6842V11.7459L83.0693 6.30334H87.5265L90.2712 10.1037L93.016 6.30334H97.4732L92.9691 11.7459V12.6842L97.4732 18.1502H93.016L90.2712 14.3264L87.5265 18.1502Z" fill="black"/>
</g>
</svg>
